<?xml version="1.0" encoding="utf-8"?>
<!-- Generator: Adobe Illustrator 28.1.0, SVG Export Plug-In . SVG Version: 6.00 Build 0)  -->
<svg version="1.1" id="Capa_1" xmlns="http://www.w3.org/2000/svg" xmlns:xlink="http://www.w3.org/1999/xlink" x="0px" y="0px"
	 viewBox="0 0 595.28 841.89" style="enable-background:new 0 0 595.28 841.89;" xml:space="preserve">
<style type="text/css">
	.st0{fill:#FFFFFF;}
</style>
<path class="st0" d="M553.64,640.67c-2.07,5.61-4,11.25-7.71,16.1c-16.04,20.95-44.95,22.74-64.23,3.65
	c-25.53-25.28-50.85-50.78-76.26-76.19c-11.53-11.53-23.15-22.96-34.52-34.64c-2.81-2.89-4.8-3.46-8.38-1.07
	c-28.92,19.35-60.94,30.41-95.48,33.3c-43.94,3.68-85.27-5.39-123.28-28.2c-44.76-26.86-76.13-64.94-91.63-114.69
	c-20.66-66.28-10.94-128.69,29.84-185.16c33.75-46.73,79.99-74.36,136.92-83.12c40.75-6.28,80.06-0.37,117.55,17.26
	c40.94,19.26,72.29,48.77,94.21,88.13c13.98,25.11,22.15,52.14,24.6,80.94c3.78,44.32-5.61,85.53-28.08,123.8
	c-2.03,3.46-1.32,5.42,1.32,8.05c36.19,36.03,72.21,72.24,108.44,108.23c7.71,7.66,14,15.96,16.69,26.65
	C553.64,629.36,553.64,635.01,553.64,640.67z M387.76,375.44c0.53-76.02-61.89-138.73-138.5-138.75
	c-76.1-0.03-139.04,61.17-138.96,138.93c0.09,76.7,61.08,138.89,139.14,138.73C328.44,514.18,388.28,450.04,387.76,375.44z"/>
</svg>
