<?xml version="1.0" encoding="utf-8"?>
<!-- Generator: Adobe Illustrator 28.1.0, SVG Export Plug-In . SVG Version: 6.00 Build 0)  -->
<svg version="1.1" id="Capa_1" xmlns="http://www.w3.org/2000/svg" xmlns:xlink="http://www.w3.org/1999/xlink" x="0px" y="0px"
	 viewBox="0 0 595.28 841.89" style="enable-background:new 0 0 595.28 841.89;" xml:space="preserve">
<style type="text/css">
	.st0{fill:#FFFFFF;}
</style>
<g>
	<path class="st0" d="M41.64,652.56c0-154.68,0-309.37,0-464.05c1.98-7.41,5.97-13.46,11.95-18.31c3.02-2.45,6.83-3.2,9.99-5.26
		c155.23,0,310.45,0,465.68,0c3.21,1.33,6.64,2.02,9.76,3.68c8.4,4.46,12.21,12.06,14.62,20.7c0,154.14,0,308.28,0,462.43
		c-1.07,6.73-4.05,12.45-8.88,17.29c-3.73,3.73-8.58,5.48-13.06,7.91c-47.68,0-95.36,0-143.03,0c0.65-2.39,0.55-4.83,0.55-7.27
		c0-62.43,0-124.87,0-187.3c0-5.45,0.14-5.46,5.8-5.43c19.9,0.07,39.8,0,59.7,0.1c3.71,0.02,5.1-1.45,5.68-5.13
		c3.11-19.77,6.48-39.51,9.79-59.25c0.88-5.27,0.83-5.4-4.7-5.41c-23.84-0.01-47.67-0.07-71.51,0.06c-3.72,0.02-4.88-1.16-4.84-4.89
		c0.17-16.79,0.14-33.59,0.04-50.38c-0.03-5.6,0.59-11.08,1.81-16.51c2.11-9.36,7.86-15.59,16.84-18.7
		c5.91-2.05,12.06-3.08,18.35-3.08c14.62-0.01,29.25-0.1,43.87,0.07c3.51,0.04,4.71-0.9,4.69-4.56
		c-0.15-20.72-0.06-41.44-0.05-62.16c0-6.19,0-6.27-6.15-7.03c-13.31-1.66-26.67-2.55-40.07-2.97c-17.53-0.55-34.78,0.36-51.46,6.97
		c-20.33,8.07-35.34,21.72-45.25,41.01c-8.06,15.68-11.73,32.59-11.96,50.12c-0.29,21.93-0.07,43.86-0.09,65.79
		c0,5.99-0.22,6.22-6.13,6.23c-19.37,0.02-38.73,0-58.1,0.01c-7.13,0-7.1,0.03-7.16,7.33c-0.05,6.22,0.48,12.41,0.3,18.66
		c-0.36,12.56-0.18,25.15,0.11,37.72c0.14,5.97,0.53,6.05,6.46,6.04c19.49-0.02,38.99-0.08,58.48-0.11c5.79-0.01,6.03,0.3,5.91,5.91
		c-0.08,3.65,0.01,7.31,0.02,10.97c0.02,20.31,0.05,40.61,0.05,60.92c0,20.17-0.06,40.34-0.07,60.51
		c-0.01,20.58,0.01,41.15,0.02,61.73c-84.52,0-169.04,0-253.56,0c-8.69-2.57-16.64-6.11-20.89-14.96
		C43.66,658.93,42.88,655.67,41.64,652.56z"/>
</g>
</svg>
