<?xml version="1.0" encoding="utf-8"?>
<!-- Generator: Adobe Illustrator 28.1.0, SVG Export Plug-In . SVG Version: 6.00 Build 0)  -->
<svg version="1.1" id="Capa_1" xmlns="http://www.w3.org/2000/svg" xmlns:xlink="http://www.w3.org/1999/xlink" x="0px" y="0px"
	 viewBox="0 0 595.28 841.89" style="enable-background:new 0 0 595.28 841.89;" xml:space="preserve">
<style type="text/css">
	.st0{fill:#FFFFFF;}
</style>
<g>
	<path class="st0" d="M386.64,676.95c-58.67,0-117.33,0-176,0c-2.9-1.04-5.93-0.74-8.91-0.82c-14.34-0.34-28.61-1.43-42.72-4.11
		c-39.18-7.43-70.9-26.41-92.65-60.45c-14.73-23.05-20.84-48.82-22.87-75.77c-0.67-8.95-1.23-17.91-1.85-26.86c0-59,0-118,0-177
		c0.24-2.14,0.66-4.28,0.69-6.42c0.16-12.67,1.11-25.28,3.08-37.79c5.94-37.73,22.28-69.54,53.36-92.76
		c24.58-18.36,52.97-25.83,83.02-28.26c8.94-0.72,17.9-1.18,26.86-1.76c58.67,0,117.33,0,176,0c2.57,0.92,5.26,0.74,7.91,0.78
		c14.66,0.24,29.24,1.34,43.67,4.03c33.93,6.33,62.73,21.54,84.55,48.83c20.35,25.44,28.51,55.24,31.04,87.02
		c0.72,9.1,1.23,18.22,1.83,27.33c0,59,0,118,0,177c-0.24,1.81-0.66,3.61-0.67,5.42c-0.12,12.84-1.1,25.6-3.05,38.28
		c-4.56,29.69-15.68,56.35-36.65,78.34c-27.14,28.45-61.55,40.28-99.77,43.2C404.54,675.87,395.59,676.36,386.64,676.95z
		 M297.17,629.7c0-0.02,0-0.04,0-0.07c29.15,0,58.31,0.36,87.45-0.15c14.77-0.26,29.62-0.78,44.23-3.79
		c38.99-8.03,63.57-30.93,72.71-69.97c3.83-16.34,4.37-33.03,4.66-49.64c0.88-50.63,1.24-101.28,0.41-151.92
		c-0.33-19.82-0.3-39.66-3.29-59.31c-4.43-29.17-17.39-53.05-43.86-67.97c-16.64-9.38-35.02-12.43-53.78-13.71
		c-27.94-1.91-55.95-1.41-83.92-1.69c-37.31-0.38-74.63,0.19-111.94,0.91c-14.44,0.28-28.95,0.9-43.24,3.78
		c-38.82,7.82-63.47,30.37-72.77,69.23c-3.8,15.85-4.27,32.02-4.77,48.13c-0.77,24.97-0.99,49.97-0.97,74.96
		c0.02,33.32,0.22,66.64,0.91,99.95c0.3,14.61,0.94,29.27,3.75,43.75c7.87,40.48,33.73,66.17,74.2,73.71
		c14.32,2.67,28.81,3.44,43.26,3.67C239.2,630.03,268.19,629.7,297.17,629.7z"/>
	<path class="st0" d="M297.61,553.04c-72.52-0.05-132.15-59.77-132.06-132.27c0.09-72.58,59.8-132.09,132.35-131.9
		c72.56,0.19,131.97,59.91,131.82,132.51C429.56,493.67,369.95,553.08,297.61,553.04z M382.4,421.06
		c0.04-46.87-37.59-84.79-84.24-84.88c-47.16-0.1-85.19,37.53-85.28,84.38c-0.09,47.12,37.59,85.09,84.5,85.15
		C344.43,505.76,382.36,468,382.4,421.06z"/>
	<path class="st0" d="M434.09,315.19c-17.17-0.03-30.7-13.63-30.7-30.84c0.01-17.19,14.23-31.48,31.08-31.23
		c16.87,0.25,31.06,14.52,30.95,31.1C465.3,301.44,451.36,315.22,434.09,315.19z"/>
</g>
</svg>
