<?xml version="1.0" encoding="utf-8"?>
<!-- Generator: Adobe Illustrator 28.1.0, SVG Export Plug-In . SVG Version: 6.00 Build 0)  -->
<svg version="1.1" id="Capa_1" xmlns="http://www.w3.org/2000/svg" xmlns:xlink="http://www.w3.org/1999/xlink" x="0px" y="0px"
	 viewBox="0 0 595.28 841.89" style="enable-background:new 0 0 595.28 841.89;" xml:space="preserve">
<style type="text/css">
	.st0{fill:#FFFFFF;}
</style>
<g>
	<path class="st0" d="M313.63,123.5c16.22,2.58,32,6.67,46.47,14.61c41,22.5,65.93,56.6,71.98,103.12
		c9.5,73.09-40.63,139.96-113.55,151.04c-76.16,11.58-141.82-39.82-154.26-108.86c-14.03-77.84,37.1-147.56,115.92-159.4
		c0.48-0.07,0.93-0.34,1.4-0.52C292.27,123.5,302.95,123.5,313.63,123.5z"/>
	<path class="st0" d="M297.61,635.5c-69.25,0-138.51,0-207.76,0c-12.42,0-17.87-5.51-17.87-18.01
		c0.04-86.12,60.54-165.17,143.51-187.64c16.99-4.6,34.18-7.15,51.84-6.95c21.69,0.24,43.39-0.22,65.08,0.12
		c46.01,0.73,86.42,16.69,121.23,46.39c36.47,31.12,58.82,70.55,67.12,117.79c1.79,10.17,2.68,20.43,2.52,30.79
		c-0.18,11.81-5.67,17.51-17.41,17.51c-57.57,0.01-115.15,0-172.72,0C321.31,635.5,309.46,635.5,297.61,635.5z"/>
</g>
</svg>
