<?xml version="1.0" encoding="utf-8"?>
<!-- Generator: Adobe Illustrator 28.1.0, SVG Export Plug-In . SVG Version: 6.00 Build 0)  -->
<svg version="1.1" id="Capa_1" xmlns="http://www.w3.org/2000/svg" xmlns:xlink="http://www.w3.org/1999/xlink" x="0px" y="0px"
	 viewBox="0 0 595.28 841.89" style="enable-background:new 0 0 595.28 841.89;" xml:space="preserve">
<style type="text/css">
	.st0{fill:#FFFFFF;}
</style>
<g>
	<path class="st0" d="M41.64,187.62c5.21-11.6,14.2-16.02,26.8-15.66c19.23,0.55,38.49,0.12,57.74,0.16
		c11.95,0.02,19.47,5.1,23.37,16.4c6.5,18.82,12.68,37.75,19,56.63c3.65,10.91,6.83,13.2,18.47,13.2
		c113.13,0.01,226.26,0.01,339.39-0.02c4.07,0,8.11,0.12,12.02,1.37c12.4,3.95,18.17,16.41,13.69,29.94
		c-11.78,35.55-23.67,71.07-35.51,106.6c-6.88,20.65-13.76,41.29-20.66,61.93c-4.26,12.73-10.99,17.57-24.41,17.57
		c-74.46,0-148.93,0-223.39,0c-13.23,0-16.75,2.77-20.02,15.74c-1.11,4.41-2.28,8.82-3.2,13.27c-1.35,6.56,2.86,12.21,9.51,12.86
		c2.34,0.23,4.72,0.13,7.09,0.13c83.24,0.01,166.49,0.01,249.73-0.01c4.95,0,9.79,0.45,14.28,2.69
		c8.61,4.29,13.66,14.13,11.94,23.08c-2.17,11.26-9.97,18.16-21.71,19.13c-1.68,0.14-3.37,0.08-5.06,0.08
		c-83.58,0-167.16,0.01-250.75,0c-31.49,0-53.98-18.88-59.35-49.8c-1.33-7.65,0.02-15.12,1.84-22.53c1.65-6.71,3.18-13.46,5-20.12
		c2.94-10.8,2.06-21.34-1.44-31.84c-23.28-69.77-46.52-139.56-69.79-209.34c-3.08-9.25-7.73-12.63-17.68-12.71
		c-10.64-0.09-21.29-0.43-31.91,0.08c-12.22,0.58-20.4-4.47-25-15.66C41.64,196.4,41.64,192.01,41.64,187.62z"/>
	<path class="st0" d="M205.79,669.95c-18.08-5.02-30.09-16.08-34.2-34.77c-5.07-23.03,11.27-47.37,34.42-51.52
		c24.96-4.48,48.29,12.19,51.9,36.35c3.58,23.99-12.87,43.62-30.13,48.47c-1.29,0.36-2.5,0.97-3.75,1.47
		C217.95,669.95,211.87,669.95,205.79,669.95z"/>
	<path class="st0" d="M465.19,669.95c-18.08-5.02-30.09-16.08-34.2-34.77c-5.07-23.03,11.27-47.37,34.42-51.52
		c24.96-4.48,48.29,12.19,51.9,36.35c3.58,23.99-12.87,43.62-30.13,48.47c-1.29,0.36-2.5,0.97-3.75,1.47
		C477.35,669.95,471.27,669.95,465.19,669.95z"/>
</g>
</svg>
